<svg width="211" height="16" viewBox="0 0 211 16" fill="none" xmlns="http://www.w3.org/2000/svg">
<path d="M7.61719 0.625V12H6.17969V1.85938H1.73438V12H0.296875V0.625H7.61719ZM9.6875 8.17969V7.375C9.6875 6.71875 9.77083 6.14323 9.9375 5.64844C10.1042 5.14844 10.3359 4.73177 10.6328 4.39844C10.9297 4.0651 11.276 3.8151 11.6719 3.64844C12.0677 3.47656 12.4922 3.39062 12.9453 3.39062C13.4089 3.39062 13.8385 3.47656 14.2344 3.64844C14.6302 3.8151 14.9766 4.0651 15.2734 4.39844C15.5755 4.73177 15.8099 5.14844 15.9766 5.64844C16.1432 6.14323 16.2266 6.71875 16.2266 7.375V8.17969C16.2266 8.83594 16.1432 9.41406 15.9766 9.91406C15.8099 10.4089 15.5781 10.8229 15.2812 11.1562C14.9844 11.4896 14.638 11.7396 14.2422 11.9062C13.8464 12.0729 13.4193 12.1562 12.9609 12.1562C12.5026 12.1562 12.0755 12.0729 11.6797 11.9062C11.2839 11.7396 10.9349 11.4896 10.6328 11.1562C10.3359 10.8229 10.1042 10.4089 9.9375 9.91406C9.77083 9.41406 9.6875 8.83594 9.6875 8.17969ZM11.0703 7.375V8.17969C11.0703 8.64323 11.1172 9.04948 11.2109 9.39844C11.3047 9.7474 11.4375 10.0391 11.6094 10.2734C11.7812 10.5078 11.9818 10.6849 12.2109 10.8047C12.4401 10.9193 12.6901 10.9766 12.9609 10.9766C13.2734 10.9766 13.5469 10.9193 13.7812 10.8047C14.0208 10.6849 14.2188 10.5078 14.375 10.2734C14.5312 10.0391 14.6484 9.7474 14.7266 9.39844C14.8047 9.04948 14.8438 8.64323 14.8438 8.17969V7.375C14.8438 6.91146 14.7969 6.50781 14.7031 6.16406C14.6094 5.8151 14.4766 5.52344 14.3047 5.28906C14.1328 5.04948 13.9297 4.8724 13.6953 4.75781C13.4661 4.63802 13.2161 4.57812 12.9453 4.57812C12.6797 4.57812 12.4323 4.63802 12.2031 4.75781C11.974 4.8724 11.7734 5.04948 11.6016 5.28906C11.4349 5.52344 11.3047 5.8151 11.2109 6.16406C11.1172 6.50781 11.0703 6.91146 11.0703 7.375ZM22.6016 3.54688V4.74219H19.2344V3.54688H22.6016ZM23.8359 3.54688V12H22.4609V3.54688H23.8359ZM18.9062 3.54688H20.2891L20.0938 7.625C20.0625 8.25521 20.0104 8.8125 19.9375 9.29688C19.8698 9.77604 19.7734 10.1875 19.6484 10.5312C19.5286 10.875 19.3776 11.1562 19.1953 11.375C19.0182 11.5885 18.8047 11.7474 18.5547 11.8516C18.3099 11.9505 18.026 12 17.7031 12H17.2891V10.7266L17.5625 10.7031C17.7448 10.6875 17.901 10.6354 18.0312 10.5469C18.1667 10.4583 18.276 10.3281 18.3594 10.1562C18.4479 9.97917 18.5182 9.7526 18.5703 9.47656C18.6276 9.20052 18.6719 8.8724 18.7031 8.49219C18.7344 8.11198 18.7578 7.66927 18.7734 7.16406L18.9062 3.54688ZM27.5547 9.71094L30.6172 3.54688H32V12H30.6172V5.83594L27.5547 12H26.1797V3.54688H27.5547V9.71094ZM37.25 3.54688V12H35.8672V3.54688H37.25ZM39.5547 3.54688V4.71875H33.5938V3.54688H39.5547ZM42.5234 9.71094L45.5859 3.54688H46.9688V12H45.5859V5.83594L42.5234 12H41.1484V3.54688H42.5234V9.71094ZM50.6875 3.54688V12H49.3047V3.54688H50.6875ZM55.3359 3.54688L51.9375 8.39062H50.2266L50.0078 7.125H51.375L53.6797 3.54688H55.3359ZM53.8047 12L51.3281 8.17188L52.2109 7.125L55.5391 12H53.8047ZM61.0078 10.5547V5.96875C61.0078 5.63542 60.9557 5.36719 60.8516 5.16406C60.7526 4.96094 60.6016 4.8125 60.3984 4.71875C60.2005 4.625 59.9505 4.57812 59.6484 4.57812C59.3568 4.57812 59.1042 4.63802 58.8906 4.75781C58.6823 4.8776 58.5208 5.03646 58.4062 5.23438C58.2969 5.43229 58.2422 5.65104 58.2422 5.89062H56.8594C56.8594 5.58854 56.9245 5.28906 57.0547 4.99219C57.1901 4.69531 57.3828 4.42708 57.6328 4.1875C57.8828 3.94271 58.1823 3.75 58.5312 3.60938C58.8854 3.46354 59.2812 3.39062 59.7188 3.39062C60.2396 3.39062 60.7005 3.47656 61.1016 3.64844C61.5026 3.8151 61.8177 4.08854 62.0469 4.46875C62.276 4.84896 62.3906 5.35417 62.3906 5.98438V10.1562C62.3906 10.4375 62.4115 10.737 62.4531 11.0547C62.5 11.3724 62.5651 11.6458 62.6484 11.875V12H61.2188C61.151 11.8333 61.099 11.612 61.0625 11.3359C61.026 11.0547 61.0078 10.7943 61.0078 10.5547ZM61.2266 6.875L61.2422 7.89062H60.2812C59.9531 7.89062 59.6536 7.92708 59.3828 8C59.1172 8.07292 58.888 8.17969 58.6953 8.32031C58.5026 8.45573 58.3542 8.625 58.25 8.82812C58.151 9.03125 58.1016 9.26302 58.1016 9.52344C58.1016 9.86198 58.1484 10.1328 58.2422 10.3359C58.3359 10.5339 58.4766 10.6771 58.6641 10.7656C58.8516 10.8542 59.0885 10.8984 59.375 10.8984C59.724 10.8984 60.0312 10.8177 60.2969 10.6562C60.5625 10.4948 60.7682 10.2995 60.9141 10.0703C61.0651 9.84115 61.1354 9.6276 61.125 9.42969L61.4297 10.0781C61.4089 10.2812 61.3411 10.5026 61.2266 10.7422C61.1172 10.9766 60.9635 11.2031 60.7656 11.4219C60.5677 11.6354 60.3333 11.8125 60.0625 11.9531C59.7969 12.0885 59.4974 12.1562 59.1641 12.1562C58.6745 12.1562 58.2448 12.0625 57.875 11.875C57.5104 11.6875 57.2266 11.4115 57.0234 11.0469C56.8203 10.6823 56.7188 10.2318 56.7188 9.69531C56.7188 9.28906 56.7891 8.91406 56.9297 8.57031C57.0703 8.22656 57.2786 7.92969 57.5547 7.67969C57.8307 7.42448 58.1771 7.22656 58.5938 7.08594C59.0156 6.94531 59.5026 6.875 60.0547 6.875H61.2266ZM69.7188 3.54688V12H68.3359V3.54688H69.7188ZM74.3672 3.54688L70.9688 8.39062H69.2578L69.0391 7.125H70.4062L72.7109 3.54688H74.3672ZM72.8359 12L70.3594 8.17188L71.2422 7.125L74.5703 12H72.8359ZM75.4375 8.17969V7.375C75.4375 6.71875 75.5208 6.14323 75.6875 5.64844C75.8542 5.14844 76.0859 4.73177 76.3828 4.39844C76.6797 4.0651 77.026 3.8151 77.4219 3.64844C77.8177 3.47656 78.2422 3.39062 78.6953 3.39062C79.1589 3.39062 79.5885 3.47656 79.9844 3.64844C80.3802 3.8151 80.7266 4.0651 81.0234 4.39844C81.3255 4.73177 81.5599 5.14844 81.7266 5.64844C81.8932 6.14323 81.9766 6.71875 81.9766 7.375V8.17969C81.9766 8.83594 81.8932 9.41406 81.7266 9.91406C81.5599 10.4089 81.3281 10.8229 81.0312 11.1562C80.7344 11.4896 80.388 11.7396 79.9922 11.9062C79.5964 12.0729 79.1693 12.1562 78.7109 12.1562C78.2526 12.1562 77.8255 12.0729 77.4297 11.9062C77.0339 11.7396 76.6849 11.4896 76.3828 11.1562C76.0859 10.8229 75.8542 10.4089 75.6875 9.91406C75.5208 9.41406 75.4375 8.83594 75.4375 8.17969ZM76.8203 7.375V8.17969C76.8203 8.64323 76.8672 9.04948 76.9609 9.39844C77.0547 9.7474 77.1875 10.0391 77.3594 10.2734C77.5312 10.5078 77.7318 10.6849 77.9609 10.8047C78.1901 10.9193 78.4401 10.9766 78.7109 10.9766C79.0234 10.9766 79.2969 10.9193 79.5312 10.8047C79.7708 10.6849 79.9688 10.5078 80.125 10.2734C80.2812 10.0391 80.3984 9.7474 80.4766 9.39844C80.5547 9.04948 80.5938 8.64323 80.5938 8.17969V7.375C80.5938 6.91146 80.5469 6.50781 80.4531 6.16406C80.3594 5.8151 80.2266 5.52344 80.0547 5.28906C79.8828 5.04948 79.6797 4.8724 79.4453 4.75781C79.2161 4.63802 78.9661 4.57812 78.6953 4.57812C78.4297 4.57812 78.1823 4.63802 77.9531 4.75781C77.724 4.8724 77.5234 5.04948 77.3516 5.28906C77.1849 5.52344 77.0547 5.8151 76.9609 6.16406C76.8672 6.50781 76.8203 6.91146 76.8203 7.375ZM88.5703 7.21094V8.38281H84.9844V7.21094H88.5703ZM85.2656 3.54688V12H83.8828V3.54688H85.2656ZM89.6953 3.54688V12H88.3125V3.54688H89.6953ZM100.133 7.92188V8.08594C100.133 8.67969 100.078 9.22656 99.9688 9.72656C99.8594 10.2214 99.6953 10.651 99.4766 11.0156C99.263 11.3802 98.9948 11.6641 98.6719 11.8672C98.3542 12.0651 97.9844 12.1641 97.5625 12.1641C97.1979 12.1641 96.8776 12.1094 96.6016 12C96.3255 11.8854 96.0911 11.7214 95.8984 11.5078C95.7057 11.2943 95.5547 11.0391 95.4453 10.7422C95.3359 10.4401 95.2604 10.1016 95.2188 9.72656V5.97656C95.2604 5.57552 95.3359 5.21615 95.4453 4.89844C95.5547 4.58073 95.7031 4.3099 95.8906 4.08594C96.0833 3.86198 96.3151 3.6901 96.5859 3.57031C96.862 3.45052 97.1823 3.39062 97.5469 3.39062C97.8906 3.39062 98.2005 3.46354 98.4766 3.60938C98.7526 3.75 98.9948 3.95312 99.2031 4.21875C99.4115 4.48438 99.5833 4.80469 99.7188 5.17969C99.8542 5.54948 99.9557 5.96615 100.023 6.42969C100.096 6.89323 100.133 7.39062 100.133 7.92188ZM98.7578 8.08594V7.92188C98.7578 7.55729 98.737 7.21094 98.6953 6.88281C98.6589 6.54948 98.599 6.24479 98.5156 5.96875C98.4375 5.6875 98.3333 5.44271 98.2031 5.23438C98.0781 5.02604 97.9245 4.86458 97.7422 4.75C97.5651 4.63542 97.3568 4.57812 97.1172 4.57812C96.8724 4.57812 96.6641 4.61719 96.4922 4.69531C96.3255 4.77344 96.1927 4.8776 96.0938 5.00781C95.9948 5.13281 95.9219 5.26562 95.875 5.40625V10.3047C95.9323 10.4193 96.0104 10.5286 96.1094 10.6328C96.2083 10.7318 96.3385 10.8151 96.5 10.8828C96.6667 10.9453 96.8776 10.9766 97.1328 10.9766C97.4245 10.9766 97.6719 10.9036 97.875 10.7578C98.0833 10.6068 98.2526 10.3984 98.3828 10.1328C98.513 9.86719 98.6068 9.5599 98.6641 9.21094C98.7266 8.86198 98.7578 8.48698 98.7578 8.08594ZM91.6484 8.08594V7.92188C91.6484 7.39062 91.6823 6.89323 91.75 6.42969C91.8229 5.96615 91.9271 5.54948 92.0625 5.17969C92.2031 4.80469 92.3776 4.48438 92.5859 4.21875C92.7943 3.95312 93.0339 3.75 93.3047 3.60938C93.5807 3.46354 93.8906 3.39062 94.2344 3.39062C94.5885 3.39062 94.8984 3.45052 95.1641 3.57031C95.4297 3.6901 95.6536 3.86198 95.8359 4.08594C96.0234 4.3099 96.1719 4.58073 96.2812 4.89844C96.3906 5.21615 96.4635 5.57552 96.5 5.97656V9.57812C96.4583 9.97396 96.3828 10.3307 96.2734 10.6484C96.1693 10.9661 96.0234 11.2396 95.8359 11.4688C95.6536 11.6927 95.4297 11.8646 95.1641 11.9844C94.8984 12.1042 94.5859 12.1641 94.2266 12.1641C93.8047 12.1641 93.4323 12.0651 93.1094 11.8672C92.7917 11.6641 92.5234 11.3802 92.3047 11.0156C92.0859 10.651 91.9219 10.2214 91.8125 9.72656C91.7031 9.22656 91.6484 8.67969 91.6484 8.08594ZM93.0312 7.92188V8.08594C93.0312 8.48698 93.0573 8.86198 93.1094 9.21094C93.1615 9.5599 93.2474 9.86719 93.3672 10.1328C93.487 10.3984 93.6458 10.6068 93.8438 10.7578C94.0417 10.9036 94.2865 10.9766 94.5781 10.9766C94.8385 10.9766 95.0521 10.9375 95.2188 10.8594C95.3854 10.7812 95.5156 10.6797 95.6094 10.5547C95.7083 10.4297 95.7865 10.2995 95.8438 10.1641V5.40625C95.7969 5.26562 95.724 5.13281 95.625 5.00781C95.526 4.8776 95.3906 4.77344 95.2188 4.69531C95.0521 4.61719 94.8438 4.57812 94.5938 4.57812C94.2969 4.57812 94.0469 4.66667 93.8438 4.84375C93.6458 5.02083 93.487 5.26302 93.3672 5.57031C93.2474 5.8776 93.1615 6.23438 93.1094 6.64062C93.0573 7.04167 93.0312 7.46875 93.0312 7.92188ZM95.1406 15.25V0H96.5156V15.25H95.1406ZM103.461 9.71094L106.523 3.54688H107.906V12H106.523V5.83594L103.461 12H102.086V3.54688H103.461V9.71094ZM111.406 3.54688H112.789L112.688 6.71094C112.661 7.51302 112.583 8.20573 112.453 8.78906C112.323 9.3724 112.156 9.86979 111.953 10.2812C111.75 10.6875 111.521 11.0286 111.266 11.3047C111.01 11.5807 110.745 11.8125 110.469 12H109.797L109.828 10.8203L110.102 10.8125C110.253 10.6094 110.396 10.401 110.531 10.1875C110.667 9.96875 110.789 9.71094 110.898 9.41406C111.008 9.11198 111.096 8.74479 111.164 8.3125C111.237 7.875 111.284 7.34115 111.305 6.71094L111.406 3.54688ZM111.727 3.54688H116.125V12H114.742V4.88281H111.727V3.54688ZM109.531 10.8125H117.109V14.4922H115.727V12H110.914V14.4922H109.523L109.531 10.8125ZM121.719 12.1562C121.214 12.1562 120.758 12.0807 120.352 11.9297C119.945 11.7786 119.599 11.5495 119.312 11.2422C119.026 10.9297 118.807 10.5365 118.656 10.0625C118.505 9.58854 118.43 9.02865 118.43 8.38281V7.42969C118.43 6.6849 118.516 6.05469 118.688 5.53906C118.865 5.02344 119.102 4.60938 119.398 4.29688C119.695 3.97917 120.031 3.75 120.406 3.60938C120.781 3.46354 121.167 3.39062 121.562 3.39062C122.094 3.39062 122.547 3.47656 122.922 3.64844C123.297 3.82031 123.602 4.07552 123.836 4.41406C124.07 4.7526 124.242 5.16927 124.352 5.66406C124.466 6.15885 124.523 6.72917 124.523 7.375V8.17969H119.242V7H123.141V6.80469C123.12 6.36719 123.06 5.98177 122.961 5.64844C122.867 5.3151 122.711 5.05469 122.492 4.86719C122.273 4.67448 121.964 4.57812 121.562 4.57812C121.307 4.57812 121.07 4.6224 120.852 4.71094C120.638 4.79427 120.453 4.94271 120.297 5.15625C120.146 5.36458 120.026 5.65365 119.938 6.02344C119.854 6.39323 119.812 6.86198 119.812 7.42969V8.38281C119.812 8.83594 119.854 9.22656 119.938 9.55469C120.026 9.8776 120.154 10.1458 120.32 10.3594C120.492 10.5677 120.701 10.724 120.945 10.8281C121.195 10.9271 121.479 10.9766 121.797 10.9766C122.26 10.9766 122.643 10.888 122.945 10.7109C123.247 10.5286 123.51 10.2969 123.734 10.0156L124.461 10.8828C124.31 11.0964 124.112 11.3021 123.867 11.5C123.628 11.6927 123.331 11.8516 122.977 11.9766C122.628 12.0964 122.208 12.1562 121.719 12.1562ZM131.008 7.21094V8.38281H127.422V7.21094H131.008ZM127.703 3.54688V12H126.32V3.54688H127.703ZM132.133 3.54688V12H130.75V3.54688H132.133ZM134.461 12V3.54688H135.844V10.8125H138.898V3.54688H140.281V12H134.461ZM141.172 10.8125L141.031 14.5078H139.805V12H138.844V10.8125H141.172ZM144.227 9.71094L147.289 3.54688H148.672V12H147.289V5.83594L144.227 12H142.852V3.54688H144.227V9.71094ZM155.023 10.5547V5.96875C155.023 5.63542 154.971 5.36719 154.867 5.16406C154.768 4.96094 154.617 4.8125 154.414 4.71875C154.216 4.625 153.966 4.57812 153.664 4.57812C153.372 4.57812 153.12 4.63802 152.906 4.75781C152.698 4.8776 152.536 5.03646 152.422 5.23438C152.312 5.43229 152.258 5.65104 152.258 5.89062H150.875C150.875 5.58854 150.94 5.28906 151.07 4.99219C151.206 4.69531 151.398 4.42708 151.648 4.1875C151.898 3.94271 152.198 3.75 152.547 3.60938C152.901 3.46354 153.297 3.39062 153.734 3.39062C154.255 3.39062 154.716 3.47656 155.117 3.64844C155.518 3.8151 155.833 4.08854 156.062 4.46875C156.292 4.84896 156.406 5.35417 156.406 5.98438V10.1562C156.406 10.4375 156.427 10.737 156.469 11.0547C156.516 11.3724 156.581 11.6458 156.664 11.875V12H155.234C155.167 11.8333 155.115 11.612 155.078 11.3359C155.042 11.0547 155.023 10.7943 155.023 10.5547ZM155.242 6.875L155.258 7.89062H154.297C153.969 7.89062 153.669 7.92708 153.398 8C153.133 8.07292 152.904 8.17969 152.711 8.32031C152.518 8.45573 152.37 8.625 152.266 8.82812C152.167 9.03125 152.117 9.26302 152.117 9.52344C152.117 9.86198 152.164 10.1328 152.258 10.3359C152.352 10.5339 152.492 10.6771 152.68 10.7656C152.867 10.8542 153.104 10.8984 153.391 10.8984C153.74 10.8984 154.047 10.8177 154.312 10.6562C154.578 10.4948 154.784 10.2995 154.93 10.0703C155.081 9.84115 155.151 9.6276 155.141 9.42969L155.445 10.0781C155.424 10.2812 155.357 10.5026 155.242 10.7422C155.133 10.9766 154.979 11.2031 154.781 11.4219C154.583 11.6354 154.349 11.8125 154.078 11.9531C153.812 12.0885 153.513 12.1562 153.18 12.1562C152.69 12.1562 152.26 12.0625 151.891 11.875C151.526 11.6875 151.242 11.4115 151.039 11.0469C150.836 10.6823 150.734 10.2318 150.734 9.69531C150.734 9.28906 150.805 8.91406 150.945 8.57031C151.086 8.22656 151.294 7.92969 151.57 7.67969C151.846 7.42448 152.193 7.22656 152.609 7.08594C153.031 6.94531 153.518 6.875 154.07 6.875H155.242ZM163.273 3.54688V4.74219H159.906V3.54688H163.273ZM164.508 3.54688V12H163.133V3.54688H164.508ZM159.578 3.54688H160.961L160.766 7.625C160.734 8.25521 160.682 8.8125 160.609 9.29688C160.542 9.77604 160.445 10.1875 160.32 10.5312C160.201 10.875 160.049 11.1562 159.867 11.375C159.69 11.5885 159.477 11.7474 159.227 11.8516C158.982 11.9505 158.698 12 158.375 12H157.961V10.7266L158.234 10.7031C158.417 10.6875 158.573 10.6354 158.703 10.5469C158.839 10.4583 158.948 10.3281 159.031 10.1562C159.12 9.97917 159.19 9.7526 159.242 9.47656C159.299 9.20052 159.344 8.8724 159.375 8.49219C159.406 8.11198 159.43 7.66927 159.445 7.16406L159.578 3.54688ZM167.883 6.45312H169.945C170.529 6.45312 171.018 6.57292 171.414 6.8125C171.81 7.04688 172.109 7.3724 172.312 7.78906C172.516 8.20052 172.617 8.66927 172.617 9.19531C172.617 9.58594 172.56 9.95312 172.445 10.2969C172.331 10.6354 172.159 10.9323 171.93 11.1875C171.706 11.4427 171.427 11.6432 171.094 11.7891C170.766 11.9297 170.383 12 169.945 12H166.852V3.54688H168.227V10.8125H169.945C170.268 10.8125 170.523 10.737 170.711 10.5859C170.898 10.4349 171.031 10.2396 171.109 10C171.193 9.76042 171.234 9.51042 171.234 9.25C171.234 8.99479 171.193 8.74479 171.109 8.5C171.031 8.25521 170.898 8.05208 170.711 7.89062C170.523 7.72396 170.268 7.64062 169.945 7.64062H167.883V6.45312ZM179.195 7.21094V8.38281H175.609V7.21094H179.195ZM175.891 3.54688V12H174.508V3.54688H175.891ZM180.32 3.54688V12H178.938V3.54688H180.32ZM182.234 8.17969V7.375C182.234 6.71875 182.318 6.14323 182.484 5.64844C182.651 5.14844 182.883 4.73177 183.18 4.39844C183.477 4.0651 183.823 3.8151 184.219 3.64844C184.615 3.47656 185.039 3.39062 185.492 3.39062C185.956 3.39062 186.385 3.47656 186.781 3.64844C187.177 3.8151 187.523 4.0651 187.82 4.39844C188.122 4.73177 188.357 5.14844 188.523 5.64844C188.69 6.14323 188.773 6.71875 188.773 7.375V8.17969C188.773 8.83594 188.69 9.41406 188.523 9.91406C188.357 10.4089 188.125 10.8229 187.828 11.1562C187.531 11.4896 187.185 11.7396 186.789 11.9062C186.393 12.0729 185.966 12.1562 185.508 12.1562C185.049 12.1562 184.622 12.0729 184.227 11.9062C183.831 11.7396 183.482 11.4896 183.18 11.1562C182.883 10.8229 182.651 10.4089 182.484 9.91406C182.318 9.41406 182.234 8.83594 182.234 8.17969ZM183.617 7.375V8.17969C183.617 8.64323 183.664 9.04948 183.758 9.39844C183.852 9.7474 183.984 10.0391 184.156 10.2734C184.328 10.5078 184.529 10.6849 184.758 10.8047C184.987 10.9193 185.237 10.9766 185.508 10.9766C185.82 10.9766 186.094 10.9193 186.328 10.8047C186.568 10.6849 186.766 10.5078 186.922 10.2734C187.078 10.0391 187.195 9.7474 187.273 9.39844C187.352 9.04948 187.391 8.64323 187.391 8.17969V7.375C187.391 6.91146 187.344 6.50781 187.25 6.16406C187.156 5.8151 187.023 5.52344 186.852 5.28906C186.68 5.04948 186.477 4.8724 186.242 4.75781C186.013 4.63802 185.763 4.57812 185.492 4.57812C185.227 4.57812 184.979 4.63802 184.75 4.75781C184.521 4.8724 184.32 5.04948 184.148 5.28906C183.982 5.52344 183.852 5.8151 183.758 6.16406C183.664 6.50781 183.617 6.91146 183.617 7.375ZM193.484 10.9766C193.76 10.9766 194.01 10.9219 194.234 10.8125C194.464 10.6979 194.651 10.5208 194.797 10.2812C194.943 10.0365 195.026 9.71875 195.047 9.32812H196.344C196.323 9.89062 196.18 10.3854 195.914 10.8125C195.654 11.2344 195.31 11.5651 194.883 11.8047C194.461 12.0391 193.995 12.1562 193.484 12.1562C192.938 12.1562 192.461 12.0677 192.055 11.8906C191.654 11.7135 191.32 11.4583 191.055 11.125C190.794 10.7865 190.599 10.3776 190.469 9.89844C190.339 9.41406 190.273 8.86458 190.273 8.25V7.29688C190.273 6.68229 190.339 6.13542 190.469 5.65625C190.599 5.17188 190.794 4.76302 191.055 4.42969C191.32 4.09115 191.654 3.83333 192.055 3.65625C192.461 3.47917 192.938 3.39062 193.484 3.39062C194.057 3.39062 194.552 3.51302 194.969 3.75781C195.391 3.9974 195.719 4.34635 195.953 4.80469C196.193 5.25781 196.323 5.80729 196.344 6.45312H195.047C195.026 6.03646 194.951 5.6901 194.82 5.41406C194.69 5.13281 194.513 4.92448 194.289 4.78906C194.065 4.64844 193.797 4.57812 193.484 4.57812C193.12 4.57812 192.818 4.64323 192.578 4.77344C192.344 4.89844 192.159 5.08073 192.023 5.32031C191.888 5.5599 191.792 5.84635 191.734 6.17969C191.682 6.51302 191.656 6.88542 191.656 7.29688V8.25C191.656 8.66146 191.682 9.03646 191.734 9.375C191.792 9.70833 191.885 9.99479 192.016 10.2344C192.151 10.474 192.339 10.6589 192.578 10.7891C192.818 10.9141 193.12 10.9766 193.484 10.9766ZM200.984 3.54688V12H199.602V3.54688H200.984ZM203.289 3.54688V4.71875H197.328V3.54688H203.289ZM206.258 9.71094L209.32 3.54688H210.703V12H209.32V5.83594L206.258 12H204.883V3.54688H206.258V9.71094Z" fill="white"/>
</svg>
